<svg xmlns="http://www.w3.org/2000/svg" width="120" height="26" fill="none"><path fill="#3BA1C4" fill-rule="evenodd" d="M113.123 20.5c2.57 0 4.524-.817 5.863-2.451l-3.384-1.638a3.47 3.47 0 0 1-.405.197 5.136 5.136 0 0 1-1.971.348c-1.077 0-1.976-.265-2.696-.812a3.587 3.587 0 0 1-1.371-2.242h10.764l.052-.779a14.4 14.4 0 0 0 .025-.406c0-1.585-.321-2.974-.964-4.178a6.82 6.82 0 0 0-2.661-2.759 7.943 7.943 0 0 0-7.66.045 7.177 7.177 0 0 0-2.721 2.803 8.209 8.209 0 0 0-.993 4.032c0 1.512.337 2.86 1.011 4.043a7.017 7.017 0 0 0 2.855 2.79c1.232.67 2.657 1.007 4.256 1.007Zm-4.018-9.174c.141-.98.529-1.752 1.164-2.318.635-.567 1.419-.851 2.354-.853a3.339 3.339 0 0 1 2.328.865c.635.575 1.023 1.344 1.164 2.306h-7.01Z" clip-rule="evenodd"/><path fill="#fff" d="M12.718 6.903c1.067 1.119 1.6 2.779 1.6 4.98v8.615h-4.06v-7.945c0-1.193-.244-2.084-.73-2.672-.486-.588-1.19-.881-2.11-.88-1.024 0-1.84.34-2.447 1.02-.608.68-.912 1.692-.912 3.035V20.5H0V6.707l3.88-1.889v2.393a5.363 5.363 0 0 1 2.003-1.467 6.546 6.546 0 0 1 2.63-.52c1.736 0 3.137.56 4.205 1.679ZM17.725 6.707V20.5h4.091V4.818l-4.09 1.89ZM21.816.046v3.557L17.726 5.5V1.944l4.09-1.898ZM42.274 1.948V5.5l4.091-1.902V.046l-4.09 1.902ZM37.26 6.903c1.067 1.119 1.6 2.779 1.6 4.98v8.615H34.8v-7.945c0-1.193-.243-2.084-.73-2.672-.486-.588-1.189-.881-2.108-.88-1.024 0-1.84.34-2.447 1.02-.607.68-.91 1.692-.911 3.035V20.5h-4.062V6.707l3.88-1.889v2.393a5.363 5.363 0 0 1 2.004-1.467 6.546 6.546 0 0 1 2.635-.52c1.732 0 3.131.56 4.199 1.679Z"/><path fill="#fff" d="M46.364 4.818v15.499c0 1.743-.482 3.118-1.446 4.125-.964 1.008-2.31 1.512-4.041 1.512-1.478 0-2.604-.277-3.377-.832l1.133-3.138c.487.351 1.081.526 1.784.526.541 0 .962-.179 1.27-.54.308-.362.46-.903.46-1.625V6.702l4.217-1.884Z"/><path fill="#fff" fill-rule="evenodd" d="M64.087 20.28V6.68l-4.175-1.862v2.193c-1.035-1.195-2.471-1.793-4.308-1.793a7.291 7.291 0 0 0-3.68.938c-1.104.633-2 1.561-2.582 2.676-.623 1.157-.936 2.5-.936 4.027-.001 1.527.311 2.87.936 4.027a6.614 6.614 0 0 0 2.583 2.676 7.291 7.291 0 0 0 3.679.937c1.962.002 3.46-.642 4.495-1.93v1.71h3.988Zm-4.098-7.421c0 1.25-.347 2.248-1.04 2.992a3.435 3.435 0 0 1-2.622 1.117c-1.073 0-1.956-.373-2.65-1.117-.693-.744-1.04-1.741-1.04-2.992-.002-1.25.344-2.248 1.04-2.993.697-.745 1.58-1.117 2.65-1.117 1-.023 1.959.386 2.622 1.117.693.744 1.04 1.741 1.04 2.993Z" clip-rule="evenodd"/><path fill="#3BA1C4" fill-rule="evenodd" d="M67.453 15.679a9.41 9.41 0 0 0 3.659 3.537c1.558.856 3.307 1.284 5.248 1.284 1.94 0 3.684-.43 5.232-1.287a9.521 9.521 0 0 0 3.66-3.538c.89-1.5 1.334-3.189 1.334-5.065 0-1.876-.445-3.565-1.335-5.066a9.526 9.526 0 0 0-3.659-3.533C80.044 1.154 78.3.727 76.36.727c-1.941.001-3.69.429-5.248 1.284a9.415 9.415 0 0 0-3.659 3.533c-.88 1.504-1.321 3.194-1.321 5.07 0 1.875.44 3.563 1.321 5.065Zm13.996-1.898a5.534 5.534 0 0 1-2.097 2.171 6.137 6.137 0 0 1-5.982 0 5.522 5.522 0 0 1-2.096-2.172 6.494 6.494 0 0 1-.761-3.167c-.02-1.101.241-2.19.761-3.168a5.532 5.532 0 0 1 2.096-2.173 6.137 6.137 0 0 1 5.982 0 5.543 5.543 0 0 1 2.097 2.173c.52.979.781 2.068.761 3.169a6.507 6.507 0 0 1-.76 3.167Z" clip-rule="evenodd"/><path fill="#3BA1C4" d="M101.354 6.903c1.065 1.119 1.597 2.779 1.597 4.98v8.615h-4.059v-7.945c0-1.193-.243-2.084-.728-2.672-.486-.588-1.189-.881-2.11-.88-1.024 0-1.84.34-2.446 1.02-.607.68-.912 1.692-.913 3.035V20.5h-4.062V6.707l3.88-1.889v2.393a5.365 5.365 0 0 1 2.007-1.467 6.546 6.546 0 0 1 2.63-.52c1.733 0 3.135.56 4.204 1.679Z"/></svg>