<svg width="16" height="17" viewBox="0 0 16 17" fill="none" xmlns="http://www.w3.org/2000/svg">
<path d="M11.1953 8.60547C11.1953 7.59375 11.6602 6.85547 12.5625 6.28125C12.043 5.54297 11.2773 5.16016 10.2656 5.07812C9.28125 4.99609 8.21484 5.625 7.83203 5.625C7.42188 5.625 6.49219 5.10547 5.75391 5.10547C4.22266 5.13281 2.60938 6.30859 2.60938 8.74219C2.60938 9.45312 2.71875 10.1914 2.99219 10.957C3.34766 11.9688 4.60547 14.4297 5.91797 14.375C6.60156 14.375 7.09375 13.8828 7.99609 13.8828C8.87109 13.8828 9.30859 14.375 10.0742 14.375C11.4141 14.375 12.5625 12.1328 12.8906 11.1211C11.1133 10.2734 11.1953 8.66016 11.1953 8.60547ZM9.66406 4.12109C10.4023 3.24609 10.3203 2.42578 10.3203 2.125C9.66406 2.17969 8.89844 2.58984 8.46094 3.08203C7.96875 3.62891 7.69531 4.3125 7.75 5.05078C8.46094 5.10547 9.11719 4.75 9.66406 4.12109Z" fill="#595766"/>
</svg>
